<?xml version="1.0" standalone="no"?>
<!DOCTYPE svg PUBLIC "-//W3C//DTD SVG 20010904//EN"
 "http://www.w3.org/TR/2001/REC-SVG-20010904/DTD/svg10.dtd">
<svg version="1.0" xmlns="http://www.w3.org/2000/svg"
 width="1361.000000pt" height="1361.000000pt" viewBox="0 0 1361.000000 1361.000000"
 preserveAspectRatio="xMidYMid meet">
<metadata>
Created by potrace 1.14, written by Peter Selinger 2001-2017
</metadata>
<g transform="translate(0.000000,1361.000000) scale(0.100000,-0.100000)"
fill="#000000" stroke="none">
<path d="M6474 13111 c3 -5 -2 -8 -11 -6 -10 1 -29 -4 -42 -12 -13 -8 -20 -10
-17 -4 10 15 -7 14 -23 -1 -11 -10 -13 -10 -7 0 5 8 0 12 -14 12 -14 0 -19 -4
-14 -12 6 -10 5 -10 -7 -1 -12 10 -18 10 -28 0 -9 -9 -14 -9 -21 3 -9 14 -15
6 -10 -15 1 -5 -7 -2 -18 8 -17 16 -21 16 -32 2 -7 -8 -17 -12 -23 -8 -20 12
-69 10 -74 -4 -3 -7 -9 -10 -14 -7 -5 3 -7 11 -3 17 3 7 -2 3 -10 -7 -10 -13
-16 -15 -16 -7 0 10 -3 11 -14 2 -10 -8 -16 -9 -21 -1 -3 6 -11 8 -16 5 -5 -4
-19 -8 -31 -10 -12 -3 -26 -10 -31 -17 -6 -9 -7 -8 -3 5 7 21 -3 22 -32 1 -18
-12 -26 -13 -37 -4 -12 10 -15 10 -15 -1 0 -11 -2 -11 -10 1 -6 9 -10 11 -10
3 0 -7 -7 -10 -17 -6 -9 4 -14 2 -11 -3 4 -5 -15 -8 -43 -7 -29 1 -49 -3 -49
-9 0 -6 -6 -5 -15 2 -12 10 -19 10 -27 2 -7 -7 -20 -12 -31 -12 -12 0 -16 -4
-11 -12 5 -8 1 -8 -10 1 -15 13 -19 13 -27 0 -6 -9 -9 -10 -9 -2 0 7 -7 10
-15 7 -8 -4 -12 -10 -9 -15 3 -5 -2 -6 -10 -3 -9 3 -13 11 -9 18 4 6 -1 5 -10
-2 -9 -8 -21 -11 -27 -7 -5 3 -10 1 -10 -5 0 -6 -8 -10 -17 -9 -10 1 -20 0
-23 -1 -11 -4 -47 -9 -77 -12 -17 -1 -29 -6 -26 -12 4 -5 -1 -7 -10 -3 -9 3
-18 1 -21 -6 -3 -8 -5 -8 -5 1 -1 10 -5 9 -17 -3 -11 -11 -20 -13 -27 -6 -7 7
-16 7 -29 0 -11 -6 -22 -8 -25 -5 -3 3 -12 -2 -20 -12 -8 -9 -11 -11 -7 -3 5
11 3 13 -10 8 -10 -4 -25 -7 -34 -7 -15 0 -15 -2 -2 -11 12 -8 10 -9 -8 -4
-29 8 -95 -3 -87 -15 3 -4 -5 -6 -17 -2 -15 4 -19 2 -13 -7 6 -10 3 -11 -13
-2 -15 8 -23 8 -28 -1 -5 -7 -3 -8 6 -3 9 5 11 4 6 -3 -5 -9 -13 -9 -27 -2
-13 8 -19 7 -19 0 0 -6 -4 -9 -9 -5 -5 3 -12 1 -16 -4 -3 -6 -12 -8 -20 -4 -8
3 -15 0 -15 -7 0 -6 -5 -8 -11 -5 -15 10 -61 -4 -54 -15 3 -6 -1 -7 -10 -4 -8
4 -23 0 -32 -7 -11 -10 -14 -10 -9 -2 5 9 2 11 -8 7 -9 -3 -14 -10 -11 -14 3
-5 -5 -6 -17 -2 -16 4 -19 2 -13 -9 7 -12 6 -12 -7 -1 -12 9 -18 10 -23 2 -4
-6 -14 -9 -22 -6 -8 4 -11 1 -8 -5 4 -6 -1 -9 -11 -7 -12 2 -18 -2 -16 -11 3
-12 0 -12 -12 -1 -10 8 -16 9 -16 2 0 -6 -7 -9 -15 -6 -8 4 -15 1 -15 -7 0 -7
-3 -9 -7 -6 -3 4 -13 1 -21 -6 -13 -9 -14 -9 -8 1 4 6 2 12 -4 12 -6 0 -13 -6
-16 -14 -3 -8 -14 -13 -25 -11 -13 3 -19 -2 -19 -13 0 -13 -2 -14 -9 -4 -7 11
-11 11 -24 -2 -11 -12 -17 -13 -20 -3 -4 9 -6 9 -6 -1 -1 -7 -5 -10 -11 -7 -5
3 -10 2 -10 -4 0 -5 -8 -8 -17 -7 -10 2 -24 -4 -31 -13 -11 -13 -12 -13 -7 -1
4 8 -1 6 -9 -4 -12 -15 -16 -16 -16 -5 0 8 -3 10 -8 4 -4 -5 -13 -10 -19 -11
-30 -2 -34 -5 -28 -14 4 -6 -1 -7 -11 -3 -12 5 -15 3 -9 -6 6 -10 3 -11 -15
-1 -20 11 -22 10 -16 -5 6 -16 4 -16 -11 -4 -11 9 -14 10 -9 2 5 -9 0 -13 -16
-13 -13 0 -34 -7 -46 -16 -12 -8 -27 -12 -32 -9 -6 3 -10 1 -10 -5 0 -7 -7 -9
-16 -6 -10 4 -13 2 -8 -6 5 -8 2 -9 -10 -5 -10 4 -15 3 -11 -3 3 -6 -3 -10
-15 -10 -14 0 -19 -4 -14 -12 5 -8 0 -7 -11 2 -11 9 -16 10 -11 3 5 -9 0 -13
-16 -13 -24 -1 -61 -23 -52 -32 2 -3 -7 -3 -21 -1 -15 3 -25 1 -25 -6 0 -7 -4
-9 -10 -6 -5 3 -10 1 -10 -5 0 -7 -7 -9 -15 -6 -9 3 -18 -1 -22 -10 -3 -8 -12
-13 -20 -10 -9 4 -11 2 -7 -6 5 -8 2 -9 -9 -5 -10 3 -17 2 -17 -4 0 -6 -5 -7
-12 -3 -8 5 -9 1 -4 -12 5 -15 4 -16 -5 -7 -12 12 -42 6 -34 -8 3 -4 -4 -6
-15 -4 -11 2 -20 0 -20 -4 0 -5 -11 -12 -25 -15 -14 -4 -23 -11 -20 -16 3 -6
-1 -7 -9 -4 -9 3 -16 2 -16 -4 0 -5 -7 -9 -16 -8 -9 0 -19 -5 -22 -13 -3 -9 0
-11 8 -6 8 5 11 4 6 -3 -4 -6 -13 -9 -21 -6 -8 4 -12 11 -8 18 4 6 -1 5 -10
-3 -9 -7 -15 -17 -12 -21 3 -5 0 -12 -6 -16 -8 -4 -9 -3 -5 4 4 7 3 12 -3 12
-5 0 -13 -4 -16 -10 -3 -5 -15 -10 -27 -10 -13 0 -18 -5 -15 -13 4 -10 -2 -13
-21 -9 -20 4 -24 2 -19 -11 4 -11 1 -15 -14 -12 -10 2 -19 0 -19 -6 0 -5 -3
-8 -7 -8 -20 3 -34 -2 -28 -11 3 -5 -3 -10 -15 -10 -12 0 -18 -4 -15 -10 4 -6
-1 -7 -11 -3 -12 4 -15 3 -10 -5 5 -8 2 -10 -8 -6 -10 4 -16 1 -16 -7 0 -7 -3
-9 -7 -6 -3 4 -12 -1 -20 -11 -9 -10 -11 -11 -7 -2 7 12 5 13 -8 3 -8 -7 -18
-9 -22 -5 -4 4 -6 0 -4 -8 2 -9 -3 -14 -11 -12 -9 2 -11 -3 -7 -14 6 -15 4
-15 -11 -3 -15 12 -16 12 -10 -5 6 -16 5 -17 -8 -6 -12 10 -15 9 -16 -6 0 -11
-3 -14 -6 -7 -3 10 -7 10 -18 0 -7 -7 -11 -15 -9 -19 3 -4 -5 -5 -17 -3 -15 3
-19 0 -15 -10 3 -10 0 -12 -11 -8 -11 4 -14 2 -9 -5 4 -8 2 -10 -8 -6 -8 3
-28 -7 -47 -25 -17 -17 -39 -31 -48 -31 -9 0 -23 -5 -31 -11 -13 -9 -12 -10 3
-5 24 8 21 1 -9 -19 -15 -9 -23 -12 -20 -6 10 16 -3 14 -19 -3 -8 -7 -11 -17
-7 -22 4 -5 -1 -2 -11 5 -15 12 -17 12 -11 -5 4 -10 4 -16 -1 -12 -4 4 -15 -1
-24 -10 -9 -10 -12 -12 -7 -5 6 10 4 12 -8 7 -9 -3 -16 -10 -16 -14 0 -4 -12
-15 -26 -25 -18 -12 -24 -13 -20 -4 4 8 -1 4 -10 -8 -9 -13 -22 -23 -30 -23
-7 0 -16 -5 -20 -12 -5 -7 -3 -8 7 -3 12 8 12 6 0 -9 -11 -13 -16 -14 -22 -4
-8 12 -13 4 -10 -14 0 -4 -7 -4 -16 -1 -13 5 -15 2 -10 -11 4 -9 3 -15 -2 -11
-13 7 -42 -5 -35 -16 3 -5 0 -9 -7 -9 -6 0 -18 -8 -26 -17 -8 -10 -12 -12 -8
-6 4 8 1 11 -9 7 -9 -3 -14 -11 -13 -17 1 -7 -6 -11 -15 -11 -10 1 -18 -5 -18
-13 0 -8 -4 -11 -10 -8 -6 3 -10 -1 -10 -9 0 -8 -5 -18 -12 -22 -7 -5 -8 -3
-3 5 6 10 3 11 -14 2 -11 -7 -21 -14 -21 -17 0 -3 5 -2 12 2 7 4 8 3 4 -5 -4
-7 -13 -10 -19 -8 -7 2 -24 -8 -38 -23 -14 -15 -34 -30 -44 -33 -14 -6 -15
-10 -5 -22 11 -13 10 -14 -4 -9 -11 4 -23 -1 -32 -12 -9 -11 -12 -12 -8 -4 7
13 5 13 -9 2 -9 -8 -15 -19 -14 -25 1 -7 -6 -11 -15 -9 -9 1 -22 -7 -28 -19
-7 -11 -14 -19 -16 -16 -7 7 -70 -55 -67 -65 2 -4 -3 -5 -11 -2 -8 3 -17 0
-22 -7 -4 -8 -3 -10 4 -5 7 4 12 5 12 2 0 -3 -12 -12 -28 -20 -15 -8 -51 -37
-80 -65 -29 -28 -57 -51 -62 -51 -13 0 -31 -36 -22 -44 3 -4 -2 -4 -12 0 -11
4 -17 3 -14 -2 4 -5 -1 -18 -9 -29 -13 -16 -15 -17 -10 -2 10 27 -1 20 -18
-13 -9 -16 -22 -30 -30 -30 -8 0 -15 -7 -15 -16 0 -8 -4 -12 -10 -9 -5 3 -10
-1 -10 -9 0 -8 -5 -18 -12 -22 -7 -5 -9 -2 -4 7 4 8 1 5 -8 -5 -8 -10 -13 -23
-10 -27 3 -5 -2 -6 -11 -3 -11 5 -14 2 -9 -10 5 -12 2 -15 -12 -9 -12 4 -15 3
-10 -5 4 -7 1 -12 -8 -12 -17 0 -39 -34 -28 -44 3 -4 -2 -4 -12 0 -14 5 -17 4
-12 -4 4 -7 1 -12 -7 -12 -8 0 -21 -8 -28 -17 -13 -16 -12 -17 4 -4 9 8 20 11
24 7 3 -3 1 -6 -5 -6 -18 0 -132 -118 -119 -124 8 -3 8 -5 -1 -5 -16 -1 -42
-26 -42 -40 0 -5 -5 -13 -12 -17 -7 -5 -9 -2 -4 7 4 8 1 5 -8 -5 -8 -10 -13
-22 -11 -27 3 -4 0 -11 -6 -15 -8 -5 -9 -3 -4 7 5 8 -1 5 -13 -5 -12 -11 -22
-25 -22 -32 0 -7 -9 -15 -19 -19 -12 -3 -18 -12 -15 -20 3 -8 -3 -16 -15 -20
-12 -3 -19 -10 -16 -15 3 -4 -2 -11 -11 -14 -9 -4 -14 -9 -11 -12 3 -3 -13
-23 -35 -45 -22 -21 -36 -39 -33 -39 4 0 2 -6 -4 -13 -6 -8 -7 -18 -3 -22 4
-5 2 -5 -5 -1 -14 8 -56 -35 -59 -61 -2 -9 -13 -25 -25 -34 -12 -9 -19 -21
-15 -28 5 -7 2 -10 -6 -9 -7 2 -12 -3 -11 -9 2 -7 -4 -13 -12 -13 -8 0 -12 -6
-9 -14 3 -8 0 -17 -7 -22 -8 -5 -10 -3 -5 7 4 8 -2 3 -13 -11 -11 -14 -19 -31
-16 -37 4 -12 -7 -17 -26 -15 -4 1 -5 -7 -2 -17 3 -10 -1 -22 -8 -26 -8 -6
-10 -4 -4 5 5 9 4 11 -3 6 -7 -4 -12 -16 -12 -27 0 -13 -4 -18 -12 -13 -8 5
-9 2 -5 -10 4 -9 3 -15 -1 -13 -4 3 -12 -1 -19 -8 -10 -11 -10 -15 0 -18 8 -4
7 -6 -3 -6 -18 -1 -43 -38 -35 -51 4 -6 -2 -10 -11 -10 -10 0 -14 -3 -11 -7 4
-3 -1 -12 -11 -20 -9 -8 -12 -12 -6 -9 6 3 11 -1 11 -9 0 -8 -3 -14 -6 -13
-20 2 -31 -3 -26 -12 3 -5 1 -10 -6 -10 -10 0 -10 -3 -1 -12 7 -7 12 -17 12
-22 0 -6 -5 -4 -10 4 -8 13 -12 12 -27 -4 -16 -18 -16 -19 -1 -7 26 20 22 6
-6 -22 -14 -14 -22 -28 -19 -31 4 -3 1 -6 -5 -6 -7 0 -12 -7 -12 -15 0 -8 -9
-24 -20 -35 -11 -11 -15 -20 -8 -20 6 0 4 -6 -7 -13 -10 -8 -15 -19 -11 -25 4
-7 1 -12 -9 -12 -9 0 -13 -4 -10 -10 3 -5 1 -10 -5 -10 -6 0 -8 -4 -5 -10 3
-5 1 -10 -5 -10 -6 0 -9 -4 -6 -9 4 -5 1 -11 -4 -13 -6 -2 -12 -13 -12 -25 -2
-14 -7 -19 -18 -15 -8 3 -12 2 -8 -3 4 -4 3 -15 -4 -22 -9 -11 -9 -17 3 -25
11 -8 11 -9 -3 -4 -20 6 -34 -10 -16 -17 8 -4 7 -6 -4 -6 -11 -1 -16 -8 -13
-20 3 -15 -1 -18 -12 -14 -11 4 -14 2 -9 -5 4 -7 -2 -24 -13 -38 -11 -14 -23
-38 -26 -55 -4 -17 -11 -26 -17 -23 -7 4 -8 2 -4 -5 4 -6 -2 -25 -14 -41 -12
-16 -18 -34 -15 -40 3 -5 1 -10 -5 -10 -6 0 -8 -4 -5 -10 3 -5 3 -10 -2 -10
-11 0 -34 -51 -27 -61 3 -5 0 -9 -7 -9 -7 0 -9 -3 -6 -7 4 -3 -1 -12 -11 -20
-9 -8 -11 -12 -4 -8 6 3 12 2 12 -3 0 -6 -7 -13 -15 -16 -9 -3 -15 -14 -13
-23 2 -11 -2 -17 -11 -15 -12 3 -12 0 -1 -12 7 -9 9 -16 4 -16 -15 0 -33 -48
-20 -54 6 -2 3 -5 -7 -5 -9 -1 -16 -4 -15 -8 1 -9 -9 -40 -23 -67 -8 -14 -7
-17 3 -11 7 3 5 0 -4 -8 -10 -8 -15 -16 -12 -19 3 -3 -4 -22 -16 -42 -11 -21
-18 -41 -15 -47 4 -5 1 -9 -4 -9 -6 0 -11 -5 -11 -11 0 -5 6 -7 13 -4 6 4 4 0
-7 -9 -10 -8 -18 -26 -18 -40 0 -15 -5 -23 -11 -19 -6 4 -8 -2 -5 -15 4 -12 1
-22 -4 -22 -6 0 -5 -7 2 -16 11 -12 11 -15 -1 -12 -8 2 -13 -3 -11 -9 1 -7 -3
-13 -9 -13 -8 0 -7 -5 1 -15 11 -13 10 -14 -3 -9 -12 4 -15 0 -13 -20 2 -14 0
-26 -5 -26 -5 0 -6 -7 -3 -15 4 -8 1 -15 -6 -15 -8 0 -11 -9 -8 -25 3 -13 2
-22 -2 -20 -5 3 -11 -2 -14 -11 -9 -23 -8 -26 7 -19 6 4 4 0 -6 -8 -20 -16
-23 -31 -4 -22 6 4 5 1 -3 -7 -8 -7 -16 -26 -18 -43 -2 -16 -8 -31 -13 -33 -5
-2 -5 -12 2 -23 7 -15 7 -19 -3 -17 -9 2 -12 -7 -11 -24 1 -16 -3 -28 -8 -28
-6 0 -8 -9 -4 -20 5 -14 2 -20 -10 -20 -9 0 -13 -5 -10 -10 4 -6 12 -7 18 -3
7 3 4 -3 -6 -14 -11 -12 -15 -27 -11 -38 5 -13 4 -16 -4 -11 -7 4 -12 1 -12
-9 0 -10 5 -13 13 -9 9 6 9 5 0 -8 -7 -8 -10 -18 -6 -21 3 -4 1 -7 -6 -7 -8 0
-11 -7 -7 -15 3 -8 0 -15 -7 -15 -7 0 -3 -8 8 -17 18 -14 18 -15 1 -9 -13 4
-17 2 -13 -8 3 -7 0 -19 -6 -25 -8 -8 -7 -11 3 -11 9 0 8 -5 -6 -15 -10 -8
-14 -15 -7 -15 7 0 10 -7 7 -15 -4 -8 -9 -13 -13 -10 -4 2 -8 -2 -8 -10 0 -8
5 -11 11 -8 6 4 5 0 -2 -9 -10 -13 -10 -17 0 -21 7 -3 4 -6 -7 -6 -17 -1 -17
-3 -5 -11 12 -8 12 -10 1 -10 -11 0 -11 -3 0 -17 12 -14 12 -16 0 -8 -11 6
-13 4 -8 -8 3 -9 2 -19 -4 -23 -6 -4 -5 -12 3 -22 8 -10 9 -13 1 -9 -6 4 -14
3 -18 -3 -3 -5 2 -10 12 -11 14 0 15 -2 3 -6 -8 -3 -18 -11 -22 -16 -9 -15 2
-38 16 -31 6 3 2 -2 -8 -10 -11 -9 -15 -16 -10 -16 6 0 11 -7 11 -15 0 -8 -4
-12 -8 -10 -4 3 -9 -13 -11 -36 -2 -22 1 -43 6 -46 5 -3 1 -12 -9 -20 -12 -8
-14 -13 -6 -13 11 0 11 -3 1 -15 -10 -12 -10 -18 -1 -29 8 -10 9 -16 1 -21 -5
-3 -10 -15 -10 -26 0 -12 -4 -17 -11 -13 -8 4 -8 0 0 -15 7 -11 8 -21 4 -21
-4 0 -1 -5 7 -10 12 -8 12 -10 -5 -11 -11 0 -14 -3 -7 -6 10 -4 10 -8 0 -21
-11 -13 -11 -14 2 -7 13 8 13 7 1 -8 -10 -12 -10 -17 -2 -17 8 0 6 -6 -4 -16
-15 -15 -15 -18 1 -36 15 -16 15 -18 2 -13 -13 5 -15 0 -12 -27 2 -18 6 -39 9
-46 3 -7 0 -10 -6 -7 -11 8 -8 -32 4 -52 6 -9 3 -11 -10 -6 -16 6 -16 5 -4
-10 12 -15 12 -17 -3 -11 -16 6 -17 -17 -14 -310 3 -269 5 -318 18 -326 8 -5
12 -10 8 -10 -4 0 -3 -14 2 -31 8 -28 7 -29 -7 -17 -14 11 -15 11 -6 -7 6 -11
8 -26 5 -34 -3 -8 0 -11 7 -7 8 5 8 0 1 -18 -6 -17 -6 -27 2 -32 7 -5 8 -3 3
6 -5 9 -4 11 4 6 6 -4 8 -13 4 -19 -14 -22 -11 -86 4 -91 9 -4 11 -11 6 -18
-12 -20 -13 -40 -2 -59 6 -12 5 -19 -4 -22 -8 -4 -8 -6 0 -6 6 -1 9 -10 6 -21
-3 -13 0 -20 8 -20 11 0 11 -2 -1 -10 -12 -8 -12 -10 -1 -10 10 0 11 -3 2 -14
-9 -11 -9 -16 0 -22 8 -5 9 -3 4 6 -5 9 -4 11 4 6 9 -6 9 -11 0 -22 -9 -11 -9
-17 1 -29 10 -12 10 -15 -1 -16 -8 0 -5 -4 6 -9 11 -5 15 -9 9 -9 -13 -1 -14
-31 -1 -31 5 0 3 -8 -4 -17 -12 -14 -12 -16 0 -8 11 6 13 3 7 -18 -3 -14 -2
-28 3 -31 5 -3 7 -14 4 -24 -2 -10 3 -24 11 -31 18 -15 21 -31 5 -31 -5 0 -7
5 -3 12 4 7 3 8 -5 4 -9 -6 -9 -11 1 -23 7 -9 12 -25 10 -36 -2 -12 0 -17 7
-12 14 8 10 -17 -4 -27 -6 -5 -5 -8 4 -8 7 0 11 -6 7 -15 -3 -10 1 -15 12 -15
13 0 14 -2 3 -9 -11 -7 -10 -13 3 -34 13 -19 14 -27 5 -33 -8 -4 -9 -3 -5 4 4
7 2 12 -3 12 -17 0 -13 -11 11 -38 13 -14 17 -22 11 -18 -7 4 -13 2 -13 -3 0
-6 6 -11 13 -11 8 0 7 -4 -3 -10 -10 -6 -11 -10 -2 -10 6 0 11 -3 11 -7 -1 -5
-1 -21 0 -38 1 -23 3 -27 11 -15 5 8 10 10 10 4 0 -5 -5 -15 -12 -22 -9 -9 -9
-12 1 -12 9 0 12 -9 9 -25 -3 -13 -2 -22 3 -20 4 3 10 1 14 -5 3 -5 2 -10 -4
-10 -14 0 -7 -30 10 -41 8 -5 10 -9 5 -9 -5 0 -2 -8 5 -17 12 -15 12 -16 -1
-8 -9 5 -7 -1 5 -15 11 -13 14 -20 8 -16 -21 12 -14 -12 9 -34 19 -17 20 -20
5 -14 -17 6 -18 4 -8 -15 33 -65 33 -63 19 -56 -10 6 -11 5 -1 -6 7 -7 13 -21
13 -31 0 -10 5 -18 11 -18 5 0 7 -4 4 -10 -3 -5 -3 -15 1 -22 4 -7 9 -24 10
-38 2 -14 13 -34 26 -44 16 -13 17 -17 6 -13 -16 6 -16 4 -5 -16 6 -12 16 -25
21 -28 4 -4 3 -10 -4 -14 -9 -6 -6 -12 11 -22 13 -8 16 -12 7 -9 -12 3 -15 1
-11 -10 3 -7 9 -14 15 -14 5 0 7 -4 4 -9 -3 -5 1 -14 9 -21 12 -10 12 -16 4
-26 -9 -11 -7 -15 5 -20 10 -4 15 -14 12 -29 -3 -19 -1 -22 11 -18 11 4 14 2
9 -5 -9 -15 2 -54 13 -47 5 2 6 -6 4 -19 -3 -13 2 -30 11 -38 8 -9 12 -18 9
-22 -4 -3 -1 -6 5 -6 7 0 11 -3 11 -7 -4 -22 2 -33 14 -27 7 5 6 0 -3 -11 -9
-11 -10 -16 -2 -11 8 5 12 0 12 -13 0 -12 5 -21 11 -21 5 0 7 -5 3 -12 -4 -6
-1 -16 7 -22 8 -6 14 -18 14 -26 0 -8 6 -14 14 -12 12 3 12 1 1 -13 -11 -14
-10 -17 9 -22 17 -4 19 -8 9 -14 -10 -6 -10 -11 0 -21 6 -6 12 -18 12 -26 0
-8 8 -21 18 -30 10 -10 12 -13 5 -8 -10 6 -12 4 -7 -8 3 -9 10 -16 15 -16 5 0
9 -7 9 -16 0 -9 5 -12 12 -8 8 5 7 0 -2 -11 -9 -11 -10 -16 -2 -11 8 5 12 1
12 -12 0 -23 23 -45 35 -34 4 4 2 -4 -5 -17 -8 -15 -8 -21 -1 -17 6 4 11 0 11
-11 0 -10 9 -24 21 -31 14 -9 19 -20 16 -33 -3 -10 -1 -19 4 -19 5 0 9 -7 9
-15 0 -9 6 -18 14 -21 8 -3 13 -12 12 -21 -2 -9 8 -26 22 -40 13 -13 21 -30
18 -38 -3 -8 0 -17 6 -21 7 -5 8 -2 3 6 -5 9 -4 11 3 6 7 -4 12 -14 12 -22 0
-8 6 -14 13 -14 8 0 7 -4 -3 -10 -13 -8 -12 -10 3 -10 10 0 15 -5 12 -10 -3
-6 -1 -10 5 -10 6 0 8 -4 5 -10 -3 -5 -1 -10 5 -10 7 0 10 -6 7 -14 -3 -8 2
-20 11 -28 16 -12 16 -11 2 7 -14 18 -14 19 2 7 9 -7 15 -22 13 -33 -2 -11 0
-17 5 -14 5 3 11 1 15 -5 4 -6 11 -7 17 -4 7 4 8 2 4 -5 -4 -6 -12 -8 -18 -5
-15 10 8 -30 26 -46 9 -7 16 -19 16 -27 0 -8 4 -12 9 -9 5 3 12 -1 15 -10 4
-10 2 -13 -7 -9 -6 4 -4 0 5 -8 10 -8 15 -17 11 -20 -3 -4 2 -9 11 -13 9 -3
13 -10 10 -15 -3 -5 0 -9 6 -9 6 0 8 -5 5 -10 -8 -13 7 -13 23 0 9 7 9 7 2 -2
-13 -16 -13 -41 0 -33 6 3 10 0 10 -8 0 -8 7 -20 15 -27 8 -7 12 -17 8 -23 -3
-6 -1 -7 5 -3 7 4 12 1 12 -9 0 -11 5 -15 14 -12 10 4 13 1 10 -8 -7 -16 20
-48 30 -37 4 3 4 -1 0 -11 -4 -12 -1 -17 12 -17 13 0 15 -3 7 -8 -9 -6 -7 -12
7 -22 11 -8 20 -20 20 -27 0 -7 5 -13 10 -13 6 0 10 -7 10 -15 0 -8 5 -15 11
-15 5 0 7 -5 3 -12 -4 -6 -3 -8 3 -5 5 4 16 -5 23 -18 7 -14 17 -25 22 -25 5
0 6 -5 3 -10 -3 -6 -1 -10 4 -10 6 0 11 -7 11 -16 0 -8 5 -12 10 -9 6 3 10 1
10 -6 0 -6 11 -22 26 -35 14 -13 22 -24 18 -24 -4 0 3 -8 14 -19 12 -10 22
-24 22 -30 0 -7 5 -9 10 -6 5 3 10 -1 10 -10 0 -10 5 -13 12 -9 8 5 9 2 5 -9
-3 -10 -3 -17 2 -17 4 0 20 -11 35 -25 15 -14 21 -25 14 -25 -10 0 -9 -3 2 -9
8 -6 18 -7 22 -5 5 3 8 2 7 -3 -4 -21 2 -33 17 -33 8 0 12 -4 9 -10 -3 -5 -1
-10 5 -10 6 0 8 -4 5 -10 -4 -6 1 -7 11 -3 10 4 15 2 11 -3 -8 -14 42 -66 55
-58 7 4 8 2 4 -4 -8 -14 14 -52 31 -52 7 0 13 -6 13 -14 0 -8 9 -18 20 -21 11
-3 20 -13 20 -21 0 -8 5 -12 10 -9 6 3 10 2 10 -3 0 -16 35 -49 48 -44 7 2 12
0 11 -5 -3 -18 1 -36 8 -30 3 4 14 -6 24 -23 13 -21 23 -28 35 -23 11 4 15 2
11 -4 -4 -6 2 -18 13 -28 14 -13 20 -14 20 -5 0 7 3 10 6 7 4 -4 1 -13 -6 -22
-10 -13 -9 -15 9 -15 11 0 21 -5 21 -11 0 -5 5 -7 10 -4 6 4 10 3 9 -2 -3 -18
1 -36 8 -30 3 4 14 -7 25 -23 10 -17 21 -30 25 -29 20 3 33 -2 31 -13 -2 -6 7
-17 20 -23 13 -7 39 -29 57 -50 19 -20 42 -38 52 -39 10 -2 18 -9 18 -17 1 -8
6 -13 13 -11 7 1 11 -3 10 -10 -2 -6 8 -15 22 -19 14 -4 19 -7 12 -8 -10 -1
-10 -4 0 -15 9 -10 15 -11 20 -2 5 7 8 4 8 -8 0 -13 5 -16 17 -12 10 4 15 4
11 1 -9 -9 50 -67 84 -85 16 -7 28 -20 28 -27 0 -8 5 -11 10 -8 6 3 10 1 10
-6 0 -7 3 -10 6 -6 3 3 17 -7 31 -24 20 -24 28 -27 39 -18 12 10 13 9 8 -5 -4
-10 -1 -16 8 -16 7 0 21 -8 30 -17 38 -39 61 -58 54 -43 -4 8 3 3 16 -12 13
-16 29 -28 36 -28 7 0 12 -5 12 -11 0 -5 4 -7 10 -4 5 3 10 1 10 -5 0 -7 9 -9
23 -6 12 3 16 3 9 0 -18 -8 4 -34 30 -34 10 0 16 -4 13 -10 -3 -5 1 -10 10
-10 9 0 14 -4 11 -9 -4 -5 5 -8 18 -7 18 2 23 -1 18 -12 -4 -11 -1 -14 11 -9
12 4 14 2 10 -10 -5 -12 -2 -15 9 -10 10 3 19 0 22 -9 3 -8 12 -14 21 -14 8 0
15 -4 15 -10 0 -5 7 -10 15 -10 8 0 15 -4 15 -10 0 -5 7 -10 15 -10 8 0 15 -4
15 -9 0 -5 7 -12 16 -15 15 -6 15 -4 3 11 -13 16 -12 17 4 4 9 -7 17 -21 17
-30 0 -14 2 -14 10 -1 8 13 10 12 10 -2 0 -10 7 -18 16 -18 9 0 23 -8 30 -18
8 -10 13 -12 14 -4 0 6 4 12 10 12 5 0 7 -7 4 -15 -4 -9 0 -15 10 -15 9 0 16
-5 16 -11 0 -6 7 -8 16 -5 8 3 12 2 9 -3 -3 -5 -1 -12 5 -16 5 -3 10 -1 10 5
0 6 5 8 10 5 6 -4 7 -11 4 -17 -5 -7 0 -9 14 -6 12 4 20 2 17 -2 -3 -5 8 -14
25 -22 16 -7 30 -17 30 -21 0 -5 4 -6 9 -3 5 3 12 -1 15 -10 3 -9 13 -14 20
-11 8 3 17 -1 20 -9 3 -8 15 -14 26 -14 11 0 20 -4 20 -8 0 -13 50 -33 62 -26
6 4 8 3 5 -2 -3 -6 3 -15 13 -22 16 -10 18 -9 14 6 -3 9 1 6 9 -7 11 -18 16
-20 20 -10 4 10 6 9 6 -4 1 -10 5 -15 11 -12 5 3 10 1 10 -4 0 -6 9 -11 21
-11 13 0 18 -4 13 -12 -5 -8 0 -7 11 2 11 9 16 10 11 3 -4 -8 -1 -13 8 -13 9
0 16 -6 16 -12 0 -9 4 -8 10 2 8 13 10 13 10 -2 0 -12 5 -15 17 -11 11 4 14 3
9 -5 -7 -12 11 -17 43 -13 7 2 10 -2 7 -7 -7 -12 22 -24 36 -15 7 4 8 1 3 -7
-6 -10 -2 -12 18 -8 19 4 24 1 19 -10 -4 -11 -1 -14 10 -9 10 3 19 0 22 -9 3
-8 14 -14 24 -14 10 0 22 -4 28 -10 5 -5 21 -11 34 -14 14 -2 24 -9 22 -16 -1
-6 2 -9 7 -5 6 3 23 -1 39 -9 16 -8 32 -12 36 -9 3 4 6 2 6 -4 0 -6 7 -14 16
-17 10 -4 13 -2 9 7 -4 6 1 3 9 -7 12 -15 16 -16 16 -5 0 12 2 12 10 -1 5 -8
10 -10 10 -5 0 6 5 2 11 -7 5 -10 18 -18 27 -18 9 0 25 -7 35 -15 11 -7 27
-12 38 -10 10 2 19 -1 19 -7 0 -6 9 -8 20 -5 11 3 18 2 16 -2 -8 -13 62 -39
73 -28 8 8 11 7 11 -1 0 -7 7 -12 15 -12 8 0 15 -6 15 -12 0 -9 4 -8 10 2 7
12 10 12 10 1 0 -7 6 -11 15 -7 8 3 15 1 15 -5 0 -6 4 -8 9 -5 5 3 11 0 14 -8
3 -7 18 -12 36 -11 18 1 28 -2 24 -8 -4 -6 2 -8 15 -5 14 4 20 2 15 -5 -4 -6
0 -8 10 -4 10 4 17 1 17 -6 0 -8 14 -12 40 -11 35 1 38 -1 27 -15 -8 -10 -8
-13 0 -8 6 4 23 3 38 -3 17 -7 24 -7 20 0 -3 6 -1 10 4 10 6 0 11 -3 11 -7 0
-5 11 -13 25 -20 14 -6 23 -8 20 -4 -2 4 2 8 10 8 8 0 12 -4 9 -9 -3 -4 -2 -8
3 -9 4 0 17 -3 28 -6 11 -2 30 -5 43 -6 12 0 22 -8 23 -17 0 -10 3 -9 9 5 5
11 9 14 9 7 1 -7 5 -10 11 -7 5 3 10 -1 10 -9 0 -11 6 -13 30 -6 16 5 29 5 29
2 -3 -20 3 -23 18 -11 15 12 16 12 10 -3 -4 -13 -1 -16 15 -13 12 3 27 0 35
-6 7 -7 13 -8 13 -4 0 4 6 3 13 -2 6 -5 27 -9 44 -7 21 1 30 -2 26 -9 -4 -6 0
-8 10 -4 10 3 17 2 17 -3 0 -6 5 -10 11 -10 5 0 7 4 4 10 -3 6 1 7 9 4 9 -3
13 -11 10 -16 -4 -6 4 -5 16 2 13 7 20 8 16 2 -3 -6 -2 -13 4 -17 5 -3 10 -1
10 6 0 8 4 8 15 -1 8 -7 15 -9 15 -6 0 4 10 2 21 -5 17 -9 20 -8 13 3 -6 11
-5 11 9 -1 9 -7 17 -10 17 -5 0 5 5 2 10 -6 9 -13 10 -13 10 0 0 11 2 12 8 2
11 -17 55 -26 45 -9 -4 7 0 7 10 -2 9 -7 26 -11 37 -8 11 3 18 2 15 -3 -3 -4
2 -11 11 -14 8 -3 13 -2 10 2 -3 5 8 9 25 9 20 0 25 -3 17 -9 -8 -5 0 -7 22
-6 20 1 42 -2 49 -6 7 -5 29 -10 49 -12 19 -2 40 -8 45 -13 6 -6 16 -5 29 2
12 8 21 9 26 2 11 -16 33 -17 50 -3 9 8 13 8 9 2 -4 -7 0 -14 7 -17 9 -4 17 1
19 11 4 15 5 15 6 -1 1 -11 6 -15 12 -11 6 3 15 0 20 -7 6 -10 9 -11 9 -1 0 6
5 12 11 12 5 0 7 -6 3 -12 -5 -8 0 -7 11 2 10 8 16 10 12 4 -4 -7 7 -11 30
-12 19 -1 45 -4 56 -8 14 -4 17 -3 12 6 -4 7 4 5 18 -4 20 -13 26 -14 30 -4 4
10 8 10 15 -1 9 -13 13 -13 28 0 10 8 15 9 11 3 -4 -7 8 -11 34 -12 23 -1 45
-4 50 -8 5 -3 9 1 10 8 0 7 4 4 9 -7 5 -11 9 -15 9 -8 1 7 8 10 18 6 11 -4 14
-3 9 5 -5 8 -2 10 8 6 9 -3 16 -11 16 -16 0 -6 6 -5 15 2 12 10 15 10 15 -1 0
-11 2 -11 10 1 8 12 10 12 10 1 0 -11 3 -11 17 0 13 11 15 11 9 1 -6 -10 -1
-13 20 -11 16 2 35 8 43 14 12 8 13 7 6 -4 -6 -11 -2 -13 19 -9 14 3 29 1 33
-5 4 -6 1 -7 -8 -2 -10 6 -11 5 -3 -4 8 -9 100 -11 357 -9 332 3 347 4 362 23
9 11 14 15 11 9 -4 -8 8 -11 34 -11 22 0 40 6 40 11 0 6 5 4 10 -4 9 -13 11
-13 20 0 8 12 10 12 10 1 0 -11 3 -11 15 -1 11 9 15 9 15 1 0 -7 5 -9 10 -6 6
4 7 11 4 17 -4 6 1 6 14 -1 15 -8 23 -8 28 0 5 9 10 7 19 -4 10 -14 13 -14 25
3 13 18 15 18 28 2 13 -16 13 -16 8 1 -4 13 -2 16 7 10 21 -13 58 -14 74 -2
12 10 16 10 24 -2 7 -11 9 -11 9 -1 0 8 9 12 23 10 14 -2 21 2 19 10 -1 8 2
11 8 7 6 -3 8 -10 6 -14 -3 -4 1 -8 9 -8 8 0 15 4 15 8 0 4 12 6 26 3 19 -3
24 -1 18 8 -6 10 -5 10 8 0 12 -9 18 -10 23 -2 4 6 19 10 33 9 15 -2 33 1 41
5 10 7 12 5 7 -5 -4 -8 -1 -6 7 4 15 18 32 24 22 7 -4 -7 3 -9 22 -5 15 3 34
7 41 9 8 1 18 9 24 17 8 11 9 11 4 -3 -3 -10 -1 -18 4 -18 6 0 10 5 10 11 0 5
5 7 10 4 6 -3 10 0 10 7 0 10 2 10 9 -1 6 -9 10 -10 16 -2 5 9 10 9 20 1 9 -8
17 -7 28 4 8 8 17 12 21 9 3 -3 12 -1 19 5 8 7 17 9 21 5 11 -12 37 -12 29 -1
-4 7 2 9 16 5 18 -4 21 -2 17 10 -6 13 -4 14 10 3 13 -12 17 -11 25 1 5 8 9 9
9 3 0 -6 7 -11 15 -11 8 0 12 4 9 9 -4 5 0 9 7 7 28 -3 40 1 33 14 -6 9 -4 9
7 0 14 -14 33 -18 25 -5 -2 4 7 8 22 7 15 0 30 4 34 10 5 6 8 4 8 -4 0 -11 4
-10 16 5 8 10 13 13 9 7 -3 -7 -1 -13 4 -13 6 0 11 5 11 11 0 8 6 7 17 -2 10
-8 14 -9 10 -2 -4 6 -3 14 3 18 5 3 10 0 10 -7 0 -9 3 -9 10 2 5 8 10 11 10 6
0 -5 8 -2 17 5 11 9 14 10 9 2 -5 -9 -2 -11 8 -7 9 3 13 11 9 18 -4 6 1 5 10
-3 15 -12 17 -11 17 5 0 16 2 17 10 4 7 -10 13 -11 18 -5 4 6 16 11 27 10 11
0 23 7 27 15 5 12 7 11 7 -3 1 -10 6 -15 11 -12 6 4 7 12 3 18 -4 8 -1 7 9 -1
13 -10 18 -10 24 -1 5 8 3 9 -6 4 -9 -5 -11 -4 -6 4 5 8 12 9 20 2 9 -7 19 -5
36 6 13 9 20 11 16 5 -5 -8 -2 -10 8 -6 9 3 13 11 9 17 -4 7 0 8 12 3 10 -4
28 0 43 10 15 10 21 11 17 3 -6 -9 -3 -11 9 -6 10 4 20 7 22 7 3 0 2 6 -2 13
-5 7 0 6 11 -3 14 -11 17 -12 11 -1 -6 9 -5 12 5 9 8 -3 20 1 27 9 10 10 18
10 34 2 16 -9 19 -8 13 2 -6 9 -2 11 13 7 12 -4 22 -2 22 4 0 6 9 8 21 5 17
-5 18 -3 8 9 -10 13 -8 13 14 5 20 -8 25 -7 21 3 -3 9 3 13 18 12 13 -1 25 1
28 5 3 4 14 9 25 11 11 1 26 10 33 18 8 8 11 9 7 3 -7 -15 11 -18 20 -3 4 6
10 8 15 5 5 -3 13 3 19 12 6 10 11 12 11 6 0 -7 5 -13 11 -13 6 0 9 6 6 13 -4
10 2 13 20 9 17 -3 24 -1 19 6 -4 6 2 8 16 4 17 -4 20 -2 14 13 -5 14 -4 16 8
6 14 -12 46 -5 46 9 0 5 9 7 20 5 11 -2 18 0 15 6 -4 5 5 9 19 9 14 0 28 5 31
10 4 6 11 7 17 4 8 -5 9 -1 4 11 -5 14 -4 15 7 7 8 -7 18 -7 27 -2 8 5 19 6
25 2 5 -3 3 3 -5 13 -14 17 -14 18 9 6 15 -8 21 -9 17 -2 -5 7 2 11 18 11 14
0 28 5 31 10 4 6 11 8 16 5 5 -4 9 2 9 12 0 14 2 15 9 4 6 -9 11 -10 15 -2 4
6 11 9 16 6 5 -3 12 0 16 6 4 8 3 9 -4 5 -7 -4 -12 -2 -12 4 0 6 10 8 24 4 13
-3 27 -1 31 5 3 6 11 9 16 6 5 -4 9 -2 9 3 0 6 11 13 25 16 17 4 23 11 18 19
-5 9 -3 9 9 -1 12 -10 17 -10 27 1 6 8 8 17 4 20 -3 4 1 7 11 7 10 0 14 -5 11
-11 -4 -6 2 -5 13 2 12 7 18 18 15 24 -4 5 -2 7 2 2 5 -4 18 1 29 10 20 17 20
17 7 0 -12 -15 -12 -17 3 -11 9 3 16 14 16 23 0 14 2 14 10 1 7 -11 10 -11 10
-2 0 7 5 10 10 7 6 -3 10 2 10 12 0 15 2 16 10 3 7 -11 10 -11 10 -2 0 7 5 10
10 7 6 -3 10 -1 10 4 0 6 9 11 20 11 11 0 20 5 20 11 0 5 5 7 10 4 6 -3 10 -2
10 3 0 6 11 13 25 16 16 4 23 11 19 18 -5 7 -3 8 5 3 8 -4 25 2 43 15 17 13
28 16 24 9 -4 -8 -2 -7 6 2 13 16 19 19 38 19 6 0 10 7 10 15 0 9 6 12 15 9 8
-4 15 -1 15 5 0 6 4 10 9 9 5 -2 17 6 26 17 l17 20 -6 -20 c-5 -17 -4 -18 6
-4 7 8 21 18 31 22 9 3 17 11 17 16 0 6 6 8 14 5 7 -3 16 2 20 11 4 11 12 15
22 11 12 -5 15 -2 10 9 -3 9 -2 13 4 10 8 -5 48 12 60 26 3 4 15 9 28 13 12 4
20 11 17 16 -3 4 2 11 11 14 10 4 13 2 8 -7 -4 -6 3 -2 15 11 12 12 28 22 36
22 8 0 17 5 21 12 5 7 2 8 -7 3 -8 -5 -11 -4 -6 1 9 9 13 10 42 13 8 0 15 8
15 16 0 9 6 12 17 8 10 -4 14 -2 10 4 -4 6 4 14 18 17 14 4 25 11 25 17 0 6 5
7 12 3 8 -5 9 -2 5 10 -4 10 -3 15 3 11 13 -8 52 14 45 25 -4 6 1 7 11 3 14
-5 16 -3 11 12 -7 16 -5 16 10 4 15 -12 16 -12 10 4 -4 11 -3 16 4 12 6 -4 17
1 25 11 9 11 12 13 9 6 -6 -11 -3 -11 14 0 14 9 19 19 15 33 -4 15 -3 17 4 6
9 -12 14 -12 36 3 14 9 26 21 26 27 0 6 5 7 10 4 6 -3 10 -1 10 5 0 6 3 9 8 7
10 -5 42 30 34 38 -4 4 -2 6 3 5 19 -4 38 0 32 6 -4 4 8 15 26 25 17 9 31 23
29 30 -2 9 2 9 14 -2 12 -9 15 -9 10 -1 -4 7 -2 12 4 12 6 0 9 4 5 9 -3 5 11
15 30 21 19 6 33 15 31 18 -2 4 3 16 11 27 13 17 15 17 9 2 -3 -11 -2 -16 4
-12 6 3 10 13 10 21 0 8 5 12 10 9 6 -4 23 6 38 21 15 15 21 24 13 19 -9 -5
-12 -4 -7 3 4 6 14 8 23 5 10 -4 14 -2 10 4 -4 5 5 15 19 22 14 6 22 16 19 21
-4 6 -2 9 3 8 5 -2 21 10 36 25 14 15 26 25 26 20 0 -4 7 3 16 15 8 12 21 22
29 22 17 0 37 34 27 45 -4 5 -1 5 6 1 6 -4 12 -2 12 3 0 6 3 10 8 10 20 -3 31
3 37 21 4 11 11 18 16 15 5 -4 9 1 9 10 0 9 4 14 9 11 5 -3 11 4 15 17 5 19 8
20 17 7 9 -12 10 -10 6 8 -4 18 -2 22 9 18 12 -5 18 5 15 26 0 4 7 4 16 1 13
-5 15 -2 10 11 -4 10 -3 15 3 11 6 -3 10 -1 10 5 0 6 5 8 12 4 7 -5 9 -2 6 7
-3 8 2 21 10 29 14 13 15 12 8 -5 -6 -17 -5 -18 6 -7 7 7 13 18 13 25 1 7 6
11 13 9 11 -2 17 12 12 33 -1 5 2 6 6 2 4 -4 14 3 22 15 11 19 12 19 7 3 -5
-16 -4 -18 7 -7 7 7 13 18 13 25 1 7 6 11 13 9 7 -1 12 5 12 13 0 8 7 15 16
15 8 0 12 4 9 10 -3 5 -1 10 4 10 6 0 20 8 31 17 14 13 17 20 8 30 -8 11 -7
12 6 7 11 -4 16 -1 16 11 0 9 4 14 9 11 9 -6 26 22 23 36 -1 4 6 4 16 1 9 -3
14 -3 10 1 -3 4 7 20 23 35 16 15 26 31 22 34 -3 4 -1 7 6 7 7 0 10 4 7 9 -3
5 2 15 12 22 15 13 16 12 3 -3 -9 -12 -10 -18 -2 -18 6 0 11 4 11 10 0 5 9 18
21 29 13 11 18 24 14 32 -5 7 -4 10 3 5 10 -6 38 31 34 46 -1 4 6 4 16 1 9 -3
14 -3 11 1 -4 4 4 19 17 33 13 14 21 29 18 34 -3 5 2 9 11 9 11 0 15 5 11 16
-3 8 -2 12 4 9 5 -3 15 5 21 19 7 14 17 23 22 19 7 -4 8 1 3 13 -4 10 -4 15 0
12 8 -8 34 16 34 32 0 6 7 13 15 16 8 4 12 10 9 15 -3 5 0 9 6 9 7 0 9 7 6 16
-3 8 -2 13 2 10 9 -6 22 3 41 27 12 15 12 17 0 14 -8 -2 -11 -2 -6 0 4 3 5 9
2 14 -4 5 2 6 11 2 13 -5 16 -3 11 10 -4 10 -2 16 4 14 6 -1 19 13 28 30 10
18 21 30 25 26 3 -3 6 4 6 16 0 12 4 20 9 17 5 -3 12 1 15 10 4 10 2 13 -6 8
-7 -4 -8 -3 -4 4 4 7 14 12 21 12 8 0 12 6 9 14 -3 7 7 21 21 30 23 15 24 20
13 34 -7 9 -8 13 -3 10 6 -4 17 -3 25 3 11 6 12 9 2 9 -7 0 -1 11 14 25 15 14
22 25 15 25 -6 0 -11 5 -11 11 0 5 4 8 9 5 5 -3 14 1 21 9 7 8 9 15 4 15 -4 0
0 6 11 13 11 9 15 19 10 27 -6 9 -4 11 5 5 10 -6 12 -4 7 9 -4 9 -3 15 2 12
13 -8 34 21 25 35 -5 9 -2 10 9 6 10 -3 17 -2 17 2 0 5 -6 12 -12 14 -8 3 -7
6 4 6 13 1 16 8 12 29 -3 20 -2 23 6 12 9 -13 14 -7 11 13 0 4 4 7 10 7 5 0 8
4 5 9 -3 5 1 12 10 15 8 3 12 10 9 16 -3 5 -1 10 5 10 7 0 10 7 6 15 -3 8 0
14 7 12 7 -1 12 8 12 20 0 12 5 26 9 30 5 5 6 1 2 -7 -4 -8 0 -6 9 5 9 11 14
28 12 37 -3 10 -2 17 2 16 18 -2 31 3 31 13 0 5 -4 8 -8 5 -5 -3 -9 1 -9 8 0
8 6 12 12 9 7 -2 15 3 19 12 3 9 2 14 -2 11 -5 -3 -9 1 -9 8 0 8 7 12 15 8 12
-4 14 0 10 16 -4 14 -2 20 5 15 7 -4 8 0 4 11 -4 10 -3 15 3 11 6 -3 10 1 10
10 0 9 5 13 11 9 8 -4 8 0 0 15 -10 17 -9 20 5 14 13 -5 15 -2 9 17 -4 12 -3
20 1 17 5 -3 15 1 22 9 10 11 10 14 0 14 -9 1 -7 5 4 14 14 10 15 15 5 26 -9
10 -9 11 1 6 7 -5 12 -1 12 9 0 10 5 13 13 9 8 -5 7 -2 -2 9 -12 15 -12 17 2
11 12 -4 15 0 13 20 -2 14 0 23 4 21 5 -3 11 2 14 11 4 10 2 13 -7 9 -6 -4 -2
2 11 12 16 14 20 21 11 30 -8 8 -7 13 2 18 8 6 10 4 5 -6 -4 -8 0 -5 8 5 9 11
16 25 16 30 0 6 -5 4 -10 -4 -7 -10 -10 -11 -10 -2 0 7 6 15 14 18 9 3 12 12
9 21 -5 12 -3 14 7 8 10 -6 12 -3 8 13 -4 12 -1 25 4 29 7 4 8 1 3 -7 -5 -9
-4 -11 4 -6 9 6 9 11 1 21 -8 10 -8 15 1 21 8 5 10 3 4 -7 -5 -8 -4 -11 1 -6
5 5 9 12 9 15 0 4 4 13 9 21 7 11 6 12 -5 6 -11 -7 -12 -6 -2 7 7 8 9 19 5 23
-4 5 -2 5 4 2 16 -9 28 25 12 35 -9 5 -8 8 6 8 11 0 16 3 13 7 -4 3 1 15 10
26 10 11 12 17 6 13 -7 -4 -13 -2 -13 3 0 6 5 11 11 11 8 0 7 5 -1 15 -11 13
-10 14 5 9 15 -6 17 -3 13 14 -4 12 -3 20 2 17 4 -3 11 2 14 11 4 10 2 13 -7
8 -9 -6 -9 -4 1 8 7 9 11 21 10 26 -2 6 6 18 17 27 11 9 14 14 8 10 -7 -3 -13
-1 -13 4 0 6 5 11 11 11 8 0 7 6 -2 17 -10 11 -10 14 -1 9 12 -7 15 0 15 36 0
10 4 15 10 11 6 -4 8 2 5 15 -4 14 -2 20 5 15 6 -4 8 2 5 15 -4 12 -3 20 2 17
4 -3 11 2 14 11 3 8 2 12 -4 9 -5 -3 -3 6 5 21 7 15 11 33 8 42 -5 11 -3 13 7
7 10 -6 12 -3 8 13 -4 12 -2 22 3 22 4 0 5 7 2 17 -4 10 -2 14 4 10 7 -5 10 4
9 23 -1 17 2 30 7 30 4 0 6 4 2 9 -3 5 0 13 6 17 8 4 7 9 -2 15 -11 7 -10 9 3
9 15 0 16 4 7 26 -8 22 -7 25 4 16 10 -9 13 -6 12 13 0 13 -3 27 -8 31 -4 4 3
18 15 31 15 16 17 23 7 23 -12 0 -12 2 0 9 12 8 13 12 1 25 -11 14 -10 16 6 9
17 -6 18 -5 4 12 -8 10 -10 16 -4 12 7 -4 15 0 18 9 4 10 2 13 -7 8 -9 -6 -9
-4 1 8 10 13 10 17 0 21 -8 4 -7 6 4 6 15 1 16 5 8 27 -6 15 -6 23 -1 19 5 -3
12 -1 16 5 3 5 1 10 -4 10 -6 0 -11 5 -11 11 0 5 5 7 12 3 8 -5 9 -2 5 9 -3
10 -2 17 3 17 6 0 6 10 -1 26 -8 23 -8 25 5 15 13 -11 15 -9 11 8 -2 12 -7 26
-11 33 -5 7 -3 8 6 3 10 -6 12 -4 7 8 -3 9 -1 18 6 21 8 3 8 5 -2 5 -11 1 -11
4 0 17 17 20 19 55 5 73 -9 12 -8 13 3 6 11 -6 13 -4 8 8 -3 10 -2 17 3 17 6
0 6 10 -1 26 -8 22 -7 25 3 16 10 -8 13 -2 12 27 0 20 -3 42 -8 49 -5 8 -2 10
9 6 13 -5 14 -2 5 20 -7 20 -7 25 2 20 7 -5 9 -2 5 9 -3 9 -1 18 6 21 9 3 8 5
-1 5 -8 1 -10 6 -5 14 12 19 12 90 1 105 -8 9 -7 11 6 6 19 -7 21 6 4 25 -10
11 -10 13 0 7 7 -5 12 -1 12 9 0 12 -5 15 -17 11 -12 -4 -10 0 5 12 13 10 20
21 16 25 -10 10 -13 47 -4 42 4 -3 8 6 8 20 0 15 -5 22 -12 18 -7 -4 -7 -2 1
7 6 7 9 19 6 28 -5 11 -3 13 8 7 8 -5 5 2 -5 14 -19 21 -19 21 -1 15 13 -5 16
-4 11 4 -4 7 -3 12 3 12 14 0 15 616 1 625 -6 3 -8 10 -5 15 3 5 1 11 -4 15
-6 3 -7 13 -4 22 4 11 3 14 -5 9 -8 -5 -10 -2 -6 8 3 9 10 14 14 11 5 -3 6 4
3 16 -4 16 -8 17 -14 7 -12 -19 -11 0 1 23 6 10 7 19 2 19 -5 0 -7 17 -5 37 1
20 -3 43 -10 52 -9 12 -9 13 1 7 18 -11 15 5 -5 21 -10 8 -12 12 -5 8 7 -4 12
0 12 9 0 9 -6 16 -12 16 -10 0 -9 3 1 9 9 6 10 10 2 16 -9 5 -9 10 0 21 9 11
8 14 -2 14 -11 0 -11 2 1 10 13 9 7 14 -12 11 -14 -2 -9 11 9 24 13 9 13 14 3
20 -9 6 -11 4 -5 -5 5 -9 4 -11 -4 -6 -6 4 -9 11 -6 16 3 5 1 11 -5 15 -6 4
-7 12 -3 18 10 17 11 47 1 47 -4 0 -8 5 -8 11 0 5 6 7 13 3 9 -5 9 -4 0 6 -6
7 -9 19 -6 28 4 9 2 13 -4 9 -6 -4 -8 3 -5 19 3 16 -1 30 -9 35 -8 5 -9 9 -3
9 17 0 12 30 -5 31 -10 0 -12 2 -3 6 6 2 12 9 12 14 0 6 -4 7 -10 4 -5 -3 -7
0 -4 8 3 8 0 18 -6 22 -8 5 -8 11 1 21 9 11 9 14 -1 14 -8 0 -10 3 -7 7 4 3 2
12 -4 19 -7 8 -6 14 2 20 8 5 9 3 4 -6 -5 -9 -4 -11 3 -6 8 5 8 13 0 31 -6 13
-15 22 -20 18 -6 -3 -5 4 1 16 10 17 9 22 -4 27 -8 3 -15 10 -15 16 0 5 4 7 9
4 5 -4 8 2 6 11 -2 10 -4 22 -4 26 -1 5 -5 6 -9 3 -4 -2 -8 4 -8 14 0 10 4 16
8 14 4 -3 8 0 8 5 0 6 -3 11 -8 11 -4 0 -13 9 -20 21 -8 12 -9 18 -3 14 6 -3
11 1 11 10 0 10 -5 13 -12 9 -9 -5 -9 -2 1 9 12 16 8 22 -12 18 -5 -1 -6 3 -2
9 3 5 3 16 -2 23 -11 18 -13 38 -2 31 5 -3 6 -10 3 -16 -5 -7 -2 -8 5 -4 9 6
9 12 -3 25 -9 10 -13 21 -9 24 3 4 1 7 -6 7 -9 0 -11 9 -6 30 4 20 3 30 -5 30
-6 0 -8 -5 -4 -12 4 -7 3 -8 -5 -4 -9 6 -9 11 0 22 9 11 8 14 -7 14 -16 0 -17
2 -4 10 9 6 11 13 5 18 -5 4 -11 20 -13 37 -2 16 -8 33 -14 36 -5 3 -9 9 -9
13 4 28 -1 46 -10 40 -8 -5 -8 -1 0 14 8 15 7 21 -3 25 -8 3 -13 14 -12 24 2
10 -1 27 -7 38 -6 11 -10 26 -9 33 2 6 -2 12 -9 12 -7 0 -9 10 -7 24 4 19 1
23 -11 18 -14 -5 -14 -3 -2 11 11 14 11 18 -3 23 -9 3 -13 10 -10 15 3 5 0 9
-7 9 -8 0 -8 4 1 15 10 12 9 16 -5 21 -13 5 -14 9 -3 15 10 7 8 9 -6 9 -11 0
-16 3 -13 7 4 3 -1 16 -10 27 -17 20 -17 20 1 6 19 -15 19 -14 2 18 -9 18 -15
36 -12 41 3 4 -4 15 -14 24 -11 9 -17 25 -15 37 2 11 0 18 -6 15 -5 -4 -9 4
-9 16 0 12 -8 28 -17 36 -10 8 -12 12 -6 8 9 -4 11 -1 7 9 -3 9 -10 16 -15 16
-5 0 -9 11 -9 25 0 14 -6 28 -14 31 -8 3 -12 12 -9 20 3 8 -2 23 -11 33 -9 10
-13 21 -9 24 3 4 0 7 -8 7 -11 0 -11 2 1 10 13 8 12 10 -4 10 -12 0 -16 5 -12
15 3 8 1 15 -4 15 -6 0 -10 9 -10 21 0 15 -5 19 -15 15 -8 -3 -15 -1 -15 4 0
6 6 10 13 10 9 0 8 3 -2 9 -7 5 -11 13 -7 19 3 6 1 14 -5 18 -8 5 -9 3 -4 -6
5 -9 4 -11 -4 -6 -6 4 -9 12 -5 17 7 12 -17 69 -30 69 -4 0 -6 6 -3 14 3 8 -3
22 -14 32 -10 9 -17 19 -14 22 2 3 -4 12 -14 21 -10 9 -17 24 -15 34 1 9 -2
17 -7 17 -5 0 -9 6 -9 13 0 8 -10 19 -22 26 -15 8 -17 10 -4 6 17 -5 18 -4 3
17 -8 13 -20 22 -25 21 -5 -1 -8 9 -6 23 1 13 -2 22 -7 18 -5 -3 -9 2 -9 10 0
9 -5 16 -11 16 -5 0 -8 4 -4 10 3 5 -3 18 -14 29 -11 11 -17 22 -13 25 3 3 0
6 -6 6 -6 0 -9 7 -6 15 5 11 2 13 -12 8 -12 -4 -15 -3 -10 5 11 18 -3 52 -20
52 -8 0 -12 5 -9 10 3 6 1 10 -6 10 -7 0 -9 3 -6 7 4 3 -1 12 -11 20 -9 8 -11
11 -4 8 11 -6 12 -3 3 14 -7 11 -14 21 -17 21 -3 0 -2 -5 2 -12 4 -7 3 -8 -5
-4 -9 6 -9 11 0 22 7 9 8 14 3 13 -21 -4 -35 2 -29 12 4 5 -2 18 -13 27 -10 9
-17 23 -14 31 3 8 0 11 -7 7 -6 -4 -11 0 -11 9 0 9 -4 14 -9 10 -6 -3 -8 3 -6
15 2 11 -1 19 -8 17 -6 -1 -13 8 -15 21 -3 19 -6 21 -18 11 -12 -10 -13 -9 -8
4 8 22 -14 60 -32 53 -8 -3 -14 -1 -14 4 0 6 5 10 11 10 8 0 8 5 -1 15 -7 8
-17 12 -23 8 -6 -4 -7 -1 -2 7 5 8 1 18 -10 27 -11 7 -16 13 -12 13 5 0 2 6
-5 14 -7 8 -16 12 -20 9 -4 -2 -5 3 -2 11 4 11 0 16 -12 17 -11 0 -14 3 -7 5
8 4 5 13 -9 29 -12 14 -25 22 -29 19 -5 -3 -6 1 -3 9 3 8 -2 17 -10 20 -9 4
-16 14 -16 22 0 10 -5 13 -12 9 -8 -5 -9 -2 -5 10 6 14 3 17 -8 12 -9 -3 -13
-2 -10 3 3 5 1 12 -5 16 -6 4 -7 11 -4 17 4 6 -2 8 -17 3 -19 -5 -21 -4 -9 4
10 8 12 13 4 19 -6 4 -13 15 -17 25 -3 9 -14 17 -22 17 -9 0 -14 4 -11 9 3 5
-1 12 -10 15 -8 3 -12 10 -9 16 3 5 -1 10 -9 10 -8 0 -18 5 -22 12 -5 7 -2 9
7 3 8 -4 1 4 -14 18 -16 14 -29 29 -30 34 -1 4 -5 7 -9 6 -5 -2 -8 4 -8 13 0
8 -5 12 -10 9 -6 -4 -9 -3 -8 2 4 14 -26 53 -42 54 -12 0 -12 2 -1 6 10 4 5
10 -15 20 -16 7 -20 11 -9 8 20 -5 20 -5 1 10 -11 8 -24 15 -29 15 -4 0 -5 5
-2 10 3 6 -2 10 -11 10 -10 0 -15 3 -11 6 3 4 -1 13 -9 22 -14 13 -17 13 -25
1 -5 -8 -9 -9 -9 -3 0 5 6 16 13 23 10 11 9 13 -5 8 -11 -4 -15 -2 -12 7 7 17
-22 40 -38 30 -8 -5 -8 -1 2 11 8 10 10 16 3 12 -6 -4 -14 -3 -18 3 -4 6 -11
8 -16 4 -5 -3 -9 -2 -8 3 1 4 1 15 0 23 -1 13 -2 13 -11 0 -8 -12 -10 -10 -10
8 0 13 -4 20 -10 17 -5 -3 -10 1 -10 11 0 14 -3 14 -15 4 -13 -11 -14 -10 -9
4 3 9 1 16 -5 16 -6 0 -11 5 -11 11 0 15 -26 39 -34 32 -3 -4 -6 -1 -6 6 0 7
-5 9 -10 6 -6 -4 -10 -3 -9 2 3 19 -2 33 -12 33 -6 0 -20 11 -31 25 -11 14
-24 22 -30 19 -6 -4 -8 -2 -4 4 3 6 2 13 -4 17 -6 4 -7 11 -4 17 4 6 -1 6 -14
-1 -17 -9 -19 -8 -15 9 4 16 2 19 -12 13 -14 -5 -16 -3 -10 7 6 10 4 12 -9 7
-9 -4 -15 -3 -12 2 3 4 -3 16 -14 26 -14 13 -20 14 -20 5 0 -7 -3 -10 -6 -7
-4 4 -1 13 6 22 10 12 10 15 -4 15 -9 0 -28 12 -43 28 -16 15 -37 32 -48 39
-11 6 -19 16 -18 22 2 6 -6 11 -18 11 -11 0 -17 5 -14 10 3 6 1 10 -6 10 -7 0
-25 14 -41 32 -15 17 -28 28 -28 24 0 -4 -11 4 -24 18 -13 15 -29 26 -35 26
-7 0 -9 5 -6 10 3 6 -3 10 -13 10 -11 0 -26 8 -33 17 -12 14 -12 16 0 8 10 -5
12 -4 7 3 -4 7 -15 12 -24 12 -10 0 -26 11 -36 25 -10 14 -25 25 -32 25 -8 0
-14 5 -14 11 0 5 -4 7 -10 4 -5 -3 -10 1 -10 10 0 11 -5 15 -15 11 -9 -3 -15
0 -15 9 0 7 -5 17 -12 21 -7 5 -9 2 -4 -7 4 -8 1 -6 -7 4 -8 9 -21 16 -28 14
-8 -2 -11 -2 -7 0 13 8 -4 33 -24 33 -10 0 -17 3 -15 8 3 4 -2 14 -11 22 -14
13 -15 12 -9 -3 5 -14 4 -15 -13 -5 -14 9 -16 15 -7 21 8 6 4 7 -11 4 -12 -3
-20 -2 -17 3 2 4 -5 16 -18 26 -13 12 -17 13 -9 3 9 -13 9 -16 -3 -16 -8 0
-12 3 -10 7 2 4 -3 16 -11 26 -9 10 -13 14 -10 8 3 -6 -1 -11 -8 -11 -8 0 -12
6 -10 12 8 19 -41 46 -55 32 -9 -9 -11 -8 -6 6 5 12 2 17 -9 17 -9 0 -16 5
-16 10 0 6 -6 10 -14 10 -8 0 -16 4 -18 9 -2 5 -10 11 -18 13 -8 2 -23 13 -33
25 -16 20 -22 21 -40 11 -20 -10 -21 -9 -9 5 11 13 10 16 -7 22 -12 3 -25 4
-30 1 -5 -3 -15 2 -22 12 -13 15 -12 16 3 4 12 -10 18 -10 24 -1 4 7 3 9 -4 5
-6 -3 -13 -2 -17 4 -3 5 -15 10 -26 10 -11 0 -17 5 -14 10 3 6 -1 10 -10 10
-10 0 -13 5 -9 13 6 9 3 8 -9 -1 -13 -12 -18 -10 -29 7 -7 12 -18 21 -25 21
-7 0 -13 5 -13 11 0 8 -5 7 -16 -1 -13 -11 -16 -10 -20 8 -5 19 -59 50 -76 44
-5 -1 -8 5 -8 14 0 8 -5 12 -10 9 -6 -3 -13 1 -16 10 -6 14 -8 12 -18 -7 -8
-14 -19 -22 -32 -20 -15 2 -16 1 -5 -7 8 -5 21 -7 29 -3 10 3 13 1 8 -6 -4 -8
-2 -10 8 -6 9 3 21 -5 31 -23 9 -15 14 -20 11 -10 -5 17 -4 17 22 -1 15 -11
30 -20 34 -21 21 -4 38 -14 38 -23 0 -6 -8 -4 -17 3 -16 13 -17 12 -5 -3 7 -9
24 -15 37 -13 14 1 31 -5 37 -14 12 -15 11 -15 -7 -1 -19 14 -19 14 -6 -3 10
-13 17 -14 27 -6 10 8 16 4 27 -17 9 -17 17 -23 21 -15 4 6 13 11 19 11 8 0 7
-3 -2 -9 -11 -7 -9 -10 8 -16 11 -3 21 -11 21 -17 0 -6 -7 -5 -17 3 -16 13
-17 12 -4 -4 10 -13 17 -14 26 -7 14 11 27 -1 31 -28 2 -10 -1 -10 -11 -2 -8
7 -15 7 -19 1 -3 -5 -1 -12 4 -14 6 -3 5 -4 -2 -3 -7 2 -12 9 -10 16 1 7 -4 9
-16 6 -12 -4 -27 1 -39 11 -10 10 -12 14 -3 8 13 -9 13 -8 1 8 -11 14 -17 15
-28 5 -8 -6 -13 -7 -12 -2 3 20 -1 35 -10 29 -5 -3 -17 2 -25 11 -9 8 -16 12
-16 8 0 -3 -6 -1 -13 5 -8 6 -17 8 -21 4 -4 -4 -4 0 -1 9 4 9 1 19 -6 24 -7 4
-10 3 -6 -3 3 -5 0 -10 -8 -10 -8 0 -17 7 -19 14 -3 8 -11 11 -17 7 -8 -4 -9
-3 -5 4 4 7 1 12 -8 12 -8 0 -17 -6 -20 -12 -3 -7 -4 -4 -3 6 1 10 -4 21 -12
24 -9 3 -11 0 -6 -8 5 -8 4 -11 -3 -6 -6 4 -9 13 -6 21 5 11 -1 13 -25 10 -18
-2 -29 0 -25 6 3 5 9 7 14 4 5 -3 12 0 16 7 4 7 4 10 -1 6 -4 -4 -14 -3 -22 3
-10 9 -13 8 -13 -1 0 -9 -3 -10 -13 -1 -8 6 -17 8 -20 4 -4 -3 -7 -1 -7 6 0 7
-5 9 -11 5 -8 -5 -10 1 -7 18 3 15 0 25 -7 25 -7 0 -10 -9 -7 -21 4 -16 3 -18
-9 -8 -8 7 -23 20 -34 28 -19 14 -19 15 5 4 24 -11 24 -11 5 5 -11 9 -27 14
-36 12 -9 -3 -23 -1 -30 4 -10 6 -10 9 -2 9 7 0 10 7 6 16 -4 12 -8 13 -14 3
-6 -10 -10 -10 -23 0 -18 15 -3 48 22 48 12 0 12 -2 -2 -12 -27 -20 -19 -37 9
-19 14 9 28 14 32 10 3 -3 1 -6 -5 -6 -7 0 -12 -5 -12 -11 0 -5 5 -7 10 -4 14
9 12 -8 -2 -25 -11 -12 -10 -12 4 -1 13 10 21 10 40 0 29 -16 50 -20 43 -8 -4
5 1 6 9 3 9 -3 16 -11 16 -17 0 -6 3 -7 7 -3 4 3 13 -6 20 -21 12 -26 12 -26
7 -3 -3 14 -2 20 3 14 12 -16 42 -24 48 -14 3 6 1 18 -4 27 -6 10 -11 14 -11
9 0 -6 -6 -2 -13 9 -11 14 -16 15 -22 5 -6 -9 -4 -11 5 -5 9 6 11 4 6 -4 -5
-7 -11 -9 -15 -6 -6 6 -7 11 -10 37 -1 9 -4 9 -13 0 -7 -7 -17 -12 -23 -12 -5
0 -3 5 5 10 13 8 12 10 -2 10 -10 0 -18 5 -18 11 0 5 -4 8 -9 4 -5 -3 -17 2
-25 11 -9 8 -16 12 -16 8 0 -4 -7 1 -15 12 -8 10 -15 15 -15 10 0 -5 -8 -2
-17 5 -14 12 -16 12 -9 -1 4 -8 -1 -6 -11 6 -10 11 -24 19 -30 17 -7 -3 -22 5
-35 17 -12 11 -28 18 -35 16 -7 -3 -13 -1 -13 5 0 6 -4 8 -9 5 -5 -4 -11 -1
-13 4 -2 6 -10 12 -18 13 -8 2 -21 6 -27 10 -7 5 -17 6 -22 2 -5 -3 -13 0 -17
6 -5 8 -3 9 6 4 9 -6 11 -4 6 4 -5 7 -11 10 -14 7 -3 -3 -12 0 -20 7 -13 10
-15 9 -8 -3 4 -8 -2 -4 -13 9 -19 21 -26 20 -22 -3 1 -5 -5 -4 -13 4 -19 15
-21 24 -4 14 6 -4 8 -3 5 4 -4 5 -18 9 -32 8 -13 -2 -22 0 -19 5 2 4 -5 13
-17 19 -15 8 -19 8 -15 1 10 -16 -26 0 -42 18 -11 13 -12 13 -7 1 4 -10 2 -9
-8 3 -16 20 -32 23 -21 5 4 -7 -2 -5 -14 5 -11 11 -25 16 -30 13 -5 -3 -21 3
-35 14 -14 11 -38 20 -54 20 -19 0 -24 3 -15 9 10 6 7 10 -12 13 -14 3 -23 2
-21 -3 3 -4 0 -11 -7 -15 -7 -4 -10 -4 -6 1 4 4 2 17 -3 28 -9 16 -13 17 -20
6 -5 -8 -9 -9 -9 -3 0 16 -38 25 -44 10 -2 -6 -5 -3 -5 6 -1 12 -6 15 -18 11
-12 -5 -14 -3 -8 8 7 11 5 11 -10 -1 -11 -9 -16 -10 -11 -2 6 11 -5 17 -26 13
-5 0 -8 3 -8 9 0 5 -11 10 -24 10 -14 0 -28 5 -31 10 -3 6 -19 10 -36 10 -16
0 -29 4 -29 9 0 5 -8 7 -19 4 -10 -2 -24 2 -32 9 -20 20 -52 31 -43 15 6 -9 5
-9 -8 0 -8 7 -18 10 -21 6 -4 -3 -7 -1 -7 5 0 7 -5 12 -11 12 -5 0 -7 -5 -3
-12 4 -7 -8 -1 -26 12 -18 13 -30 18 -26 11 7 -10 3 -10 -15 0 -56 29 -61 31
-54 19 4 -7 -4 -4 -19 5 -25 17 -26 17 -20 -1 3 -11 -1 -9 -10 6 -8 14 -15 19
-16 12 0 -10 -4 -10 -16 2 -20 20 -30 21 -14 1 11 -13 10 -14 -4 -9 -9 3 -16
10 -16 16 0 5 -4 6 -10 3 -5 -3 -10 -3 -10 2 0 4 -14 9 -31 10 -17 1 -37 7
-44 13 -7 6 -20 8 -29 4 -10 -4 -16 -1 -16 7 0 8 -5 6 -13 -6 -11 -14 -16 -15
-22 -5 -5 9 -4 11 3 6 7 -4 12 -2 12 3 0 6 -6 12 -12 12 -7 1 -24 3 -38 6 -14
2 -33 4 -43 4 -11 0 -15 5 -10 12 4 8 1 8 -9 -1 -13 -10 -17 -10 -21 0 -4 10
-8 10 -16 -2 -9 -13 -11 -13 -11 1 0 12 -8 16 -30 14 -16 -1 -30 2 -30 7 0 5
-12 9 -27 8 -42 -3 -55 -1 -49 8 3 5 -1 9 -9 9 -8 0 -12 -3 -10 -7 2 -3 -5 -6
-15 -6 -13 0 -16 4 -10 11 7 8 1 10 -20 7 -17 -2 -30 0 -30 6 0 6 -10 9 -22 7
-12 -3 -27 0 -35 6 -10 9 -13 8 -13 -1 0 -9 -4 -9 -17 1 -11 10 -14 10 -9 2 4
-7 2 -13 -3 -13 -6 0 -11 8 -12 18 0 10 -3 12 -6 5 -3 -10 -10 -10 -25 -2 -16
8 -23 8 -29 -2 -5 -9 -9 -9 -9 -3 0 16 -34 23 -54 12 -9 -5 -16 -6 -15 -1 3
20 -2 27 -11 13 -8 -12 -10 -12 -10 -1 0 11 -3 11 -17 0 -14 -12 -16 -12 -9 0
7 11 1 13 -27 9 -20 -2 -34 -1 -31 3 7 12 -34 17 -45 6 -8 -8 -11 -7 -11 4 0
12 -2 12 -10 -1 -9 -13 -10 -13 -10 0 0 13 -1 13 -10 0 -8 -12 -10 -12 -10 -1
0 11 -3 11 -17 0 -9 -8 -14 -9 -10 -3 3 6 -5 16 -20 23 -22 10 -25 10 -15 -2
10 -12 8 -13 -13 -9 -15 2 -22 9 -18 16 4 6 -1 5 -10 -3 -9 -7 -17 -10 -17 -5
0 5 -5 2 -10 -6 -9 -13 -10 -13 -10 1 0 11 -9 15 -34 14 -19 0 -38 -4 -42 -7
-3 -4 -17 0 -30 9 -13 8 -24 12 -24 8 0 -4 -6 -3 -13 4 -10 8 -17 7 -25 -1 -8
-8 -18 -9 -35 -1 -14 7 -29 7 -39 2 -11 -6 -19 -5 -23 1 -3 5 -11 10 -16 10
-6 0 -7 -6 -3 -12 6 -10 4 -10 -7 -2 -8 7 -38 11 -68 10 -30 -1 -49 0 -43 2
48 16 -33 21 -334 22 -212 0 -343 -3 -340 -9z m3480 -768 c25 -4 30 -9 21 -22
-9 -16 -23 -13 -42 8 -9 11 -21 17 -26 14 -6 -3 -7 -1 -3 6 4 6 13 8 19 4 7
-4 21 -9 31 -10z m16 -47 c0 -3 -4 -8 -10 -11 -5 -3 -10 -1 -10 4 0 6 5 11 10
11 6 0 10 -2 10 -4z m140 -28 c0 -5 -11 -1 -25 8 -14 9 -25 18 -25 20 0 2 11
-2 25 -8 14 -6 25 -15 25 -20z m320 -152 c0 -2 -7 -7 -16 -10 -8 -3 -12 -2 -9
4 6 10 25 14 25 6z m355 -206 c3 -5 1 -10 -4 -10 -6 0 -11 5 -11 10 0 6 2 10
4 10 3 0 8 -4 11 -10z m108 -117 c4 -3 1 -13 -6 -21 -10 -13 -9 -15 6 -9 19 7
23 -9 7 -33 -8 -12 -10 -12 -10 5 0 17 -2 17 -10 5 -5 -8 -10 -10 -11 -5 0 6
-2 19 -4 29 -6 30 11 47 28 29z m-43 -23 c0 -5 -5 -10 -11 -10 -5 0 -7 5 -4
10 3 6 8 10 11 10 2 0 4 -4 4 -10z m97 -22 c-2 -7 -11 -12 -18 -10 -11 3 -11
1 -2 -9 10 -10 16 -9 30 2 17 13 17 13 3 -5 -14 -18 -13 -19 3 -13 15 6 17 3
12 -16 -7 -22 -7 -22 8 -2 15 20 15 20 38 0 12 -11 19 -15 16 -8 -4 6 -3 15 3
18 6 4 10 3 9 -2 -4 -24 3 -43 17 -43 8 0 13 -4 10 -9 -3 -5 8 -11 24 -15 17
-3 30 -10 30 -15 0 -6 -8 -8 -17 -5 -12 4 -14 3 -6 -3 8 -6 9 -13 2 -23 -8
-13 -10 -13 -19 0 -8 12 -10 12 -10 1 0 -9 -6 -7 -19 7 -19 23 -37 30 -25 10
4 -7 3 -8 -4 -4 -6 4 -9 13 -6 21 4 10 0 13 -16 10 -20 -4 -21 -3 -7 18 14 21
13 23 -6 25 -17 1 -19 -1 -7 -8 8 -5 11 -10 5 -10 -17 1 -45 26 -45 41 -1 10
-5 9 -14 -4 -9 -12 -16 -14 -21 -8 -3 6 -1 11 4 11 6 0 11 5 11 11 0 5 -4 7
-10 4 -14 -9 -12 19 2 33 16 16 31 15 25 0z m202 -135 c-3 -20 2 -34 11 -28 6
3 10 -2 10 -12 0 -15 2 -16 10 -3 7 12 9 11 8 -5 -2 -25 -38 -26 -61 -3 -14
14 -14 18 -1 37 15 21 25 27 23 14z m-9879 -1177 c0 -2 -7 -7 -16 -10 -8 -3
-12 -2 -9 4 6 10 25 14 25 6z m-1170 -2686 c0 -5 -5 -10 -11 -10 -5 0 -7 5 -4
10 3 6 8 10 11 10 2 0 4 -4 4 -10z m13483 -615 c-3 -9 -8 -14 -10 -11 -3 3 -2
9 2 15 9 16 15 13 8 -4z m-69 -1291 c3 -8 2 -12 -4 -9 -6 3 -10 10 -10 16 0
14 7 11 14 -7z m-11664 -3308 c0 -3 -4 -8 -10 -11 -5 -3 -10 -1 -10 4 0 6 5
11 10 11 6 0 10 -2 10 -4z m160 -160 c0 -3 -4 -8 -10 -11 -5 -3 -10 -1 -10 4
0 6 5 11 10 11 6 0 10 -2 10 -4z m355 -324 c-3 -3 -11 0 -18 7 -9 10 -8 11 6
5 10 -3 15 -9 12 -12z m120 -92 c10 -11 16 -20 13 -20 -3 0 -13 9 -23 20 -10
11 -16 20 -13 20 3 0 13 -9 23 -20z"/>
<path d="M10870 11779 c0 -5 5 -7 10 -4 6 3 10 8 10 11 0 2 -4 4 -10 4 -5 0
-10 -5 -10 -11z"/>
<path d="M9470 12606 c0 -2 7 -7 16 -10 8 -3 12 -2 9 4 -6 10 -25 14 -25 6z"/>
<path d="M10381 12164 c0 -11 3 -14 6 -6 3 7 2 16 -1 19 -3 4 -6 -2 -5 -13z"/>
<path d="M10320 12122 c9 -19 14 -21 26 -11 8 6 14 14 14 17 0 3 -5 1 -12 -6
-9 -9 -15 -7 -25 6 -13 15 -13 14 -3 -6z"/>
<path d="M10388 12073 c7 -3 16 -2 19 1 4 3 -2 6 -13 5 -11 0 -14 -3 -6 -6z"/>
<path d="M10510 11990 c0 -5 5 -10 11 -10 5 0 7 5 4 10 -3 6 -8 10 -11 10 -2
0 -4 -4 -4 -10z"/>
<path d="M10556 11992 c-3 -5 1 -9 9 -9 8 0 12 4 9 9 -3 4 -7 8 -9 8 -2 0 -6
-4 -9 -8z"/>
<path d="M13425 5420 c-3 -5 -1 -10 4 -10 6 0 11 5 11 10 0 6 -2 10 -4 10 -3
0 -8 -4 -11 -10z"/>
<path d="M686 4057 c3 -10 9 -15 12 -12 3 3 0 11 -7 18 -10 9 -11 8 -5 -6z"/>
</g>
</svg>
